# xmcd
#
# Track frame offsets: 
#        150
#        8513
#        35926
#        65251
#        104851
#        112651
#        136772
#        164852
#        175053
#        202016
#        233629
#
# Disc length: 3361 seconds
#
# Revision: 0
# Processed by: cddbd v1.5.2PL0 Copyright (c) Steve Scherf et al.
# Submitted via: ExactAudioCopyFreeDBPlugin 1.0
#
DISCID=930d1f0b
DTITLE=Peter Prautzsch - Schwere See
DYEAR=2012
DGENRE=Ambient
TTITLE0=Beaufort
TTITLE1=Skagerrak
TTITLE2=Wasser im Schiff
TTITLE3=Nebelbank
TTITLE4=Seichte Gewässer
TTITLE5=Treibeis
TTITLE6=James Caird
TTITLE7=Aurora borealis
TTITLE8=Auf Grund
TTITLE9=Windstille
TTITLE10=Tromsø
EXTD=
EXTT0=
EXTT1=
EXTT2=
EXTT3=
EXTT4=
EXTT5=
EXTT6=
EXTT7=
EXTT8=
EXTT9=
EXTT10=
PLAYORDER=
